Patient4_TMGait_0pt4_03_right_12_EMG.mot
version=1
nRows=39
nColumns=33
inDegrees=no
endheader
time	1LAddLong	2LGlutMax	3LGlutMed	4LIliopsoas	5LSemiMemb	6LBicFemLong	7LRecFem	8LVastMed	9LVastLat	10LGasMed	11LTibAnt	12lTibPost	13LPeroneusLong	14LSol	15LExtDigLong	16LFlexDigLong	17RAddLong	18RGlutMax	19RGlutMed	20RIliopsoas	21RSemiMemb	22RBicFemLong	23RRecFem	24RVastMed	25RVastLat	26RGasMed	27RTibAnt	28RTibPost	29RPeroneusLong	30RSol	31RExtDigLong	32RFlexDigLong
15.695	-0.006256	-0.085449	0.048523	0.003052	-0.17532	-0.05127	0.078278	-0.004883	0.10757	0.014954	-0.019684	0.000305	0.055847	0.034027	0.22583	0.003357	0.002747	-0.011749	0.08255	-0.041046	0.042267	-0.006866	-0.004883	-0.021515	0.020447	0.004883	0.086365	-0.00412	0.015564	-0.021515	0.002594	0.003967
15.696	-0.004272	-0.03006	0.063477	0.003052	0.035553	-0.25971	0.10254	-0.01297	0.041504	-0.003357	0.054016	-0.00061	0.097809	0.052032	0.057983	0.009766	0.000458	0.005341	0.11871	-0.050354	0.032654	-0.014954	0.049133	-0.036774	0.009003	-0.002441	0.0737	-0.011749	-0.20828	-0.073547	0.002289	0.001984
15.697	0.004272	-0.005798	0.0737	0	0.16052	-0.39139	0.13504	-0.011597	-0.063629	-0.001678	-0.040894	0.00351	0.096588	0.053864	-0.056763	-0.006561	0.003662	-0.004883	0.23972	-0.028992	0.03891	-0.004425	0.01297	-0.025635	0.032806	-0.003204	0.049133	-0.007477	-0.75424	-0.096436	0.010834	-0.00061
15.698	0.001984	0.00946	0.028229	0.013123	0.12451	-0.2945	0.17853	-0.016937	-0.17716	0.016632	-0.002899	0.002899	0.072784	0.026398	-0.005951	0.003204	0.007782	-0.053864	0.21668	-0.075378	0.032806	-0.005341	-0.007019	-0.014343	0.017395	0.005035	0.031586	-0.010986	-0.58685	-0.085602	0.003052	-0.003204
15.699	0.010071	0.024109	0.008392	-0.006714	0.14694	-0.3804	0.15503	-0.003204	-0.22415	0.035706	0.040588	0.008545	0.021057	0.028534	-0.07782	-0.006256	0.005188	-0.025177	0.000153	0.048218	0.037384	-0.01709	-0.033875	-0.025177	0.01236	-0.002136	0.070343	-0.005798	-0.52445	-0.003967	0.015717	-0.014038
15.7	0.031738	0.040283	-0.015564	-0.000458	0.12161	-0.26993	0.1355	-0.008392	-0.21698	0.027924	0.16678	0.004272	0.026093	0.039978	-0.005341	-0.005341	0.007935	-0.02243	0.15823	0.029449	0.021973	-0.011444	-0.064392	0.010986	0.011139	0.000458	0.084381	-0.013123	0.64377	-0.014191	0.003967	-0.013733
15.701	0.037384	0.062103	-0.017395	0.004425	0.024109	-0.19501	0.098419	-0.002136	-0.19592	0.005951	0.14358	0.003357	0.084991	0.046539	0.22034	0.000916	0.004883	0.010529	0.55206	0.061951	0.019531	-0.028992	-0.083923	0.008545	0.002747	-0.000916	-0.007935	-0.008545	1.7259	-0.050354	0.003052	-0.015717
15.702	0.05127	0.044403	-0.044403	0.015259	-0.021057	-0.14969	0.059509	-0.002441	-0.067444	-0.004425	-0.023346	0.004883	0.042877	0.049438	-0.17075	-0.007629	0.00946	-0.024414	0.36758	0.049133	0.014954	-0.025787	-0.084381	-0.027924	0.006409	0.001678	-0.033417	-0.009003	1.8668	-0.087128	0.00412	-0.016479
15.703	0.043488	0.009918	-0.024261	0.010834	-0.009918	-0.092773	0.10666	0.021362	0.059814	0.020294	-0.13351	0	0.015106	0.007172	-0.22598	-0.009308	0.003662	-0.10468	-0.27374	-0.103	0.025482	-0.009308	-0.082855	-0.05249	-0.001068	0.003815	-0.052795	-0.011292	0.26779	-0.11749	-0.000305	-0.00885
15.704	0.046539	-0.061646	-0.019989	0.009613	0.10056	-0.13901	0.033722	0.032043	0.16068	0.021667	-0.075836	0.002289	0.00061	-0.010834	-0.26581	-0.005035	0.004578	-0.14465	0.12085	-0.12116	0.021667	-0.004578	-0.078583	-0.018158	-0.001831	0.006104	-0.021057	-0.009003	0.013123	-0.045471	0.000916	-0.015564
15.705	0.046997	-0.062256	-0.026093	-0.001373	0.13702	-0.058136	-0.070648	0.035095	0.23132	0.01297	0.016022	-0.003357	0.22903	0.008698	-0.085754	-0.007019	-0.001984	-0.080872	0.26077	-0.11063	0.023041	-0.034485	-0.083618	-0.00946	0.011444	-0.001526	0.045471	-0.013428	0.11643	0.04425	0.002747	-0.010834
15.706	0.035095	-0.089569	-0.020905	0.001984	0.10864	0.16083	-0.049896	0.030365	0.3122	0.028839	0.037231	0.010376	0.059509	0.026703	0.029144	-0.010071	0.011139	-0.090179	0.076294	-0.12039	0.019073	-0.013275	-0.10254	-0.002289	-0.005035	0.013885	-0.043488	-0.011139	0.36575	-0.12955	0.00473	-0.014038
15.707	0.023956	-0.12741	0.027466	-0.00473	0.049896	0.36453	-0.034485	0.006714	0.3743	0.016479	-0.017853	-0.006409	0.017395	-0.003357	0.010223	-0.012054	0.007935	-0.041199	0.084534	-0.073547	0.009918	-0.027618	-0.12619	-0.022736	0.02243	0.007477	-0.048981	-0.007477	-0.71243	-0.18738	0.000458	-0.008087
15.708	0.009003	-0.17014	-0.024414	0.00412	0.022888	0.39871	-0.018005	-0.006714	0.43915	0.028992	-0.058746	0.021667	0.013428	-0.042114	-0.02594	0.000763	0.002441	-0.089874	0.19653	0.011444	0.011749	-0.00824	-0.12726	-0.02533	0.021057	0.014954	0.15335	-0.019226	-1.0776	-0.091858	0.002594	-0.00351
15.709	0.005646	-0.25879	-0.06958	0.006561	0.037994	0.35523	-0.11231	-0.012817	0.38132	0.033569	-0.014801	0.011292	-0.068817	-0.082397	-0.001221	-0.007782	0.015869	-0.09613	0.080719	0.04425	0.014648	-0.014496	-0.17242	0.005035	0.035706	-0.002289	0.10376	-0.015106	0.35614	-0.018921	0.002441	-0.002289
15.71	-0.00473	-0.2417	-0.059662	0.002747	0.03418	0.29892	-0.15335	-0.027618	0.23789	0.033264	-0.016937	-0.009613	0.096436	-0.06897	0.007019	-0.009766	0.017395	-0.040741	-0.23834	0.041351	0.011139	-0.002136	-0.13657	0.041504	0.048676	-0.012054	-0.050354	0	0.59036	-0.041809	0.006561	-0.007782
15.711	0.005493	-0.19516	0.045471	0.01236	0.016479	0.21713	-0.004425	-0.016785	0.22553	0.03067	-0.001526	0.005798	0.043488	-0.027161	0.063782	-0.003967	0.016632	-0.058136	-0.20355	-0.036316	0.015106	0.002441	-0.12421	-0.007477	0.049286	-0.02533	-0.056458	-0.025024	0.50156	-0.097351	0	-0.008698
15.712	0.005493	-0.11963	-0.032196	0	-0.032349	0.14069	0.046234	0.007477	0.11566	0.028992	0.017548	0.007935	-0.083923	-0.015869	0.1088	-0.010071	0.011749	-0.036163	0.065308	-0.028839	0.022583	0.006409	-0.16174	0.015717	0.055695	-0.025482	0.00885	-0.018616	0.071411	-0.12497	0.000916	-0.003357
15.713	0.007629	-0.074005	-0.020752	-0.010529	-0.044708	0.004425	-0.039368	0.001984	0.000916	0.011749	-0.03891	0.005493	-0.12344	-0.014496	0.092773	-0.003204	0.002136	-0.096283	0.041962	-0.011444	0.017853	-0.019531	-0.16174	0.003052	0.035553	-0.019073	0.066376	0.001221	-0.27176	0.072327	0.001831	-0.007324
15.714	0.009155	-0.076904	0.01358	0.006714	-0.013733	-0.34576	-0.045624	0.008087	-0.10437	0.003052	-0.054169	0.005493	-0.057373	-0.003815	0.037537	-0.007172	0.010223	-0.080261	0.18036	-0.023651	0.023346	-0.001984	-0.12543	0.028839	0.048218	-0.012817	0.017853	0.016785	-0.5275	0.000305	0.00351	-0.012207
15.715	0.00473	-0.015106	0.009308	0.004578	-0.014038	-0.69977	-0.006866	0.011749	-0.074463	0.01709	-0.031891	0.005035	-0.047302	0.002441	-0.014038	-0.008698	0.001373	-0.12482	0.16052	0.033417	0.028839	0.000305	-0.1358	-0.003204	0.050659	-0.01358	-0.016632	0.009155	-0.18097	0.20737	-0.000458	-0.012817
15.716	0.000153	0.00412	-0.04715	-0.005951	-0.026245	-0.55603	0.024719	0.024261	0.016937	0.016937	-0.061951	0.004578	-0.025177	-0.009003	-0.01709	-0.017242	-0.003357	-0.07782	-0.002441	0.10712	0.019989	0.00473	-0.14801	0.025635	0.023804	-0.013275	0.023651	0.008698	-0.21698	0.29053	0.004883	-0.022278
15.717	-0.010834	0.054169	-0.09903	-0.001221	-0.007935	-0.20111	0.050964	0.02533	-0.032654	0.026398	-0.1355	0.003357	-0.016937	-0.028992	-0.041046	-0.018616	0.004272	-0.081482	-0.11932	0.041199	0.017395	-0.009766	-0.14206	-0.005341	0.012817	0.0354	0.04776	-0.007782	0.19272	0.14313	0.001373	-0.025177
15.718	-0.029297	0.077667	0.031128	0.005188	-0.015411	0.093079	-0.015106	0.025635	-0.19318	0.010681	-0.15259	0.007019	0.018463	-0.001373	-0.060425	-0.016632	0.00946	-0.037994	-0.1767	-0.04715	0.01709	-0.02182	-0.13016	-0.013275	0.005493	0.049744	0.050354	-0.024261	0.21835	0.1561	0.003204	-0.026245
15.719	-0.032501	0.044403	0.036011	0.006104	-0.027466	0.15671	-0.1181	0.016479	-0.27206	0.00946	-0.10422	0.009918	0.016174	0.022278	-0.060272	-0.015564	0.010071	-0.01236	0.10086	-0.03067	0.007324	-0.036011	-0.15243	-0.017548	-0.013275	0.034943	0.075226	-0.012512	-1.0583	0.11551	-0.000153	-0.021667
15.72	-0.015717	0.068817	0.036163	0.010529	0.001068	0.18036	-0.25742	-0.009155	-0.22079	-0.010834	-0.032196	0.005493	0.041809	0.040131	-0.04364	-0.019073	0.025787	0.002441	0.15442	-0.002441	-0.001373	-0.049438	-0.13596	-0.034027	-0.027924	0.003204	0.041046	-0.00061	-1.2556	-0.081482	0.001831	-0.023041
15.721	-0.007019	0.022888	-0.008698	-0.000458	-0.022125	0.15305	-0.27222	-0.021667	-0.1918	0.01236	0.033875	0.005646	-0.040588	0.05722	0.22201	-0.013275	0.032654	0.005646	-0.055847	0.070496	0	-0.046082	-0.11505	-0.073395	-0.027924	-0.039368	-0.004578	-0.000458	-0.30228	-0.15152	0.00061	-0.019531
15.722	0.001831	0.024872	-0.014038	0.001984	-0.012512	0.093384	-0.17136	-0.027771	-0.22201	0.035095	0.065002	0.009766	-0.10208	0.054016	0.54825	-0.017853	0.015259	0.002899	-0.016785	0.099945	0.001221	-0.064392	-0.12863	-0.056763	-0.0354	-0.05188	-0.05722	-0.016174	1.0898	-0.14297	0.001526	-0.026093
15.723	0.016632	0.00061	-0.026093	0.014191	-0.045624	-0.1738	-0.088043	-0.031433	-0.21057	0.029449	0.34378	0.008087	-0.12589	0.080261	0.33279	-0.022888	0.008545	-0.044556	-0.081177	0.065918	0.002899	-0.046997	-0.09964	-0.042419	-0.036926	-0.036926	-0.068054	-0.070038	1.1604	-0.32684	0	-0.030212
15.724	0.016937	-0.004425	-0.035248	0.002594	-0.046234	-0.3305	-0.032501	-0.006256	-0.21851	0.019836	0.60593	0.013123	-0.12009	0.09552	1.3498	-0.019684	0.015106	-0.063171	0.15656	-0.016937	-0.000153	-0.044403	-0.12482	-0.04715	-0.012665	0.003052	-0.033417	-0.12924	0.50003	-0.32944	-0.000763	-0.027466
15.725	0.011292	0.007019	-0.036163	-0.002594	0.00946	-0.23697	-0.036011	0.003815	-0.00412	-0.033569	0.55985	0.010529	-0.030518	0.1413	0.045166	-0.009003	0.016327	-0.009918	0.25909	-0.046997	0.002136	-0.050964	-0.1178	-0.068512	-0.021973	-0.001068	-0.04776	-0.065613	0.26245	-0.41412	0.000305	-0.024261
15.726	0.026855	0.058441	-0.044098	-0.007172	0.057068	-0.32364	-0.048065	0.002899	0.2301	-0.034485	0.24384	0.016327	0.024414	0.16129	-0.60059	-0.012207	0.010681	-0.015717	-0.16724	-0.088959	0.000153	-0.061188	-0.12039	-0.034027	-0.021667	-0.013123	-0.12604	0.093384	0.31448	-0.64835	0.003357	-0.015564
15.727	0.015564	0.034943	-0.05188	-0.015106	0.076599	-0.33081	-0.074005	-0.013428	0.27313	-0.058899	-0.0914	0.019989	0.061951	0.11795	-0.22553	-0.000305	-0.007172	-0.041962	-0.23422	-0.044556	0.006409	-0.037842	-0.11993	-0.033264	-0.013123	-0.003967	-0.068207	0.02655	0.39673	-0.32638	0.000305	-0.01709
15.728	0.014343	0.07309	-0.023193	-0.015259	-0.034485	-0.12589	-0.089417	-0.028534	0.18921	-0.036621	-0.32059	0.020142	0.085754	0.071716	-0.59921	-0.024109	-0.010223	-0.058899	-0.24246	0.015564	0.006561	-0.014343	-0.17197	-0.063477	-0.002289	-0.000305	0.006409	-0.25497	0.30151	0.11108	0.001678	-0.021057
15.729	0.000763	0.02594	-0.035553	0.002136	-0.052643	-0.036011	-0.052032	-0.029144	0.069122	-0.025787	-0.46829	0.029907	0.076599	0.099335	-0.84198	-0.034332	0.009308	-0.066223	0.059967	0.031281	0.012512	-0.038757	-0.18127	0.011597	-0.010681	-0.009155	0.054626	0.21301	0.15289	0.067444	0.003357	-0.027924
15.73	-0.002747	0.04715	-0.054626	0.037537	0.015717	0.014038	-0.045776	-0.027313	0.064392	0.006409	-0.33249	0.043793	0.014496	0.032654	-0.737	-0.027924	0.013123	-0.048065	0.00412	-0.010529	0.011292	-0.033569	-0.18082	0.00061	-0.005341	-0.001221	0.066071	0.16007	0.087585	0.44098	0.000763	-0.037842
15.731	-0.002594	0.042114	-0.040741	0.024109	0.074921	0.009766	-0.0383	-0.010681	0.055695	0.000153	-0.15884	0.045471	0.011292	-0.031738	-0.49347	-0.029144	-0.003204	-0.056	0.074463	-0.065918	0.00946	-0.022278	-0.2095	0.01358	-0.013275	0.003204	0.057068	0.017548	0.059814	0.62378	0.002594	-0.027008
15.732	-0.0177	0.034637	-0.08316	-0.001221	-0.016174	0.083771	0.012207	0.010681	0.02533	-0.00412	-0.09903	0.054474	0.044556	-0.039063	-0.12085	-0.016785	-0.045166	-0.16068	0.08316	-0.13031	0.013733	-0.011292	-0.21759	-0.00061	-0.006561	0.011139	0.075226	-0.009918	0.063629	0.4068	0.000305	-0.032196
15.733	-0.028839	0.08194	-0.074463	-0.010223	-0.10437	0.1474	-0.009766	0.0354	0.020752	0.008545	-0.018616	0.057831	0.010223	-0.099182	0.029907	0.009918	-0.085754	-0.17929	-0.10559	-0.080109	-0.000153	-0.007324	-0.2385	0.014038	-0.005798	0.009918	0.097046	-0.016022	-0.11887	0.26337	0.00061	-0.037842
